<svg id="Layer_1" data-name="Layer 1" xmlns="http://www.w3.org/2000/svg" viewBox="0 0 254 288.8"><defs><style>.cls-1{fill:#ff5800;}</style></defs><title>logo</title><path class="cls-1" d="M202.8,145.6q7.59,14.4,7.6,32.8,0,31.2-19,49.4T137.2,246H0V0H153.6a108.41,108.41,0,0,1,38,6.4,86,86,0,0,1,29.6,18.2,81.77,81.77,0,0,1,19.2,28.2,93.2,93.2,0,0,1,6.8,36,89.39,89.39,0,0,1-4.6,28q-4.6,14-16.2,26.8L199.6,120a69.29,69.29,0,0,0,7.2-14.8,48.29,48.29,0,0,0,2.8-16,56.16,56.16,0,0,0-5-24.2,52.74,52.74,0,0,0-13.8-18,60.63,60.63,0,0,0-20.6-11.2A82.55,82.55,0,0,0,144.8,32H37.2v74.8H144.8q8,0,12.4-5a16.3,16.3,0,0,0,4.4-11q0-5.19-4.2-10.6t-12.6-5.4h-52l-36-32h88.8q24.39,0,38.8,12.8t14.4,33.6a43.6,43.6,0,0,1-4.4,19.4,47.71,47.71,0,0,1-11.2,15A60.64,60.64,0,0,1,202.8,145.6ZM198,236.8a66.69,66.69,0,0,0,17-24.2q6.19-14.59,6.2-33.8a63.54,63.54,0,0,0-2-15.8,95.91,95.91,0,0,0-5.2-15l13.6,11.6Q242,172.41,248,186.2a72,72,0,0,1,6,29,60.73,60.73,0,0,1-6.8,27.8,71.51,71.51,0,0,1-19.6,23.6q-12.81,10.2-32,16.2t-43.6,6H44.8l-36-32h130a103.66,103.66,0,0,0,33-5A73.88,73.88,0,0,0,198,236.8Zm-63.2-98H37.2V214h97.6q18.39,0,28.4-11.2a38.36,38.36,0,0,0,10-26.4q0-16.4-10.8-27T134.8,138.8ZM48,49.6,85.2,83.2V96H48Zm0,153.6V156.4L85.2,190v13.2Zm44.8-21.6-36-32h78.8q11.6,0,19.2,7.2t7.6,19.6a17.58,17.58,0,0,1-.2,2.8,13.88,13.88,0,0,0-.2,2.4Z"/></svg>